0
SECTION
2
HEADER
9
$ACADVER
1
AC1006
9
$INSUNITS
70
6
0
ENDSEC
0
SECTION
2
ENTITIES
0
POLYLINE
8
0
62
255
66
1
10
0
20
0
30
0
70
8
0
VERTEX
8
0
62
255
10
0
20
0
30
0
70
32
0
VERTEX
8
0
62
255
10
1.424131
20
-0.31330882
30
0
70
32
0
SEQEND
8
0
0
POLYLINE
8
0
62
255
66
1
10
0
20
0
30
0
70
8
0
VERTEX
8
0
62
255
10
1.424131
20
-0.31330882
30
0
70
32
0
VERTEX
8
0
62
255
10
2.848262
20
-0.62661764
30
0
70
32
0
SEQEND
8
0
0
POLYLINE
8
0
62
255
66
1
10
0
20
0
30
0
70
8
0
VERTEX
8
0
62
255
10
2.848262
20
-0.62661764
30
0
70
32
0
VERTEX
8
0
62
255
10
4.272393
20
-0.93992647
30
0
70
32
0
SEQEND
8
0
0
POLYLINE
8
0
62
255
66
1
10
0
20
0
30
0
70
8
0
VERTEX
8
0
62
255
10
4.272393
20
-0.93992647
30
0
70
32
0
VERTEX
8
0
62
255
10
5.696524
20
-1.2532353
30
0
70
32
0
SEQEND
8
0
0
POLYLINE
8
0
62
255
66
1
10
0
20
0
30
0
70
8
0
VERTEX
8
0
62
255
10
5.696524
20
-1.2532353
30
0
70
32
0
VERTEX
8
0
62
255
10
7.120655
20
-1.5665441
30
0
70
32
0
SEQEND
8
0
0
POLYLINE
8
0
62
255
66
1
10
0
20
0
30
0
70
8
0
VERTEX
8
0
62
255
10
7.120655
20
-1.5665441
30
0
70
32
0
VERTEX
8
0
62
255
10
8.5447861
20
-1.8798529
30
0
70
32
0
SEQEND
8
0
0
POLYLINE
8
0
62
255
66
1
10
0
20
0
30
0
70
8
0
VERTEX
8
0
62
255
10
8.5447861
20
-1.8798529
30
0
70
32
0
VERTEX
8
0
62
255
10
9.9689171
20
-2.1931618
30
0
70
32
0
SEQEND
8
0
0
POLYLINE
8
0
62
255
66
1
10
0
20
0
30
0
70
8
0
VERTEX
8
0
62
255
10
9.9689171
20
-2.1931618
30
0
70
32
0
VERTEX
8
0
62
255
10
11.393048
20
-2.5064706
30
0
70
32
0
SEQEND
8
0
0
POLYLINE
8
0
62
255
66
1
10
0
20
0
30
0
70
8
0
VERTEX
8
0
62
255
10
11.393048
20
-2.5064706
30
0
70
32
0
VERTEX
8
0
62
255
10
12.817179
20
-2.8197794
30
0
70
32
0
SEQEND
8
0
0
POLYLINE
8
0
62
255
66
1
10
0
20
0
30
0
70
8
0
VERTEX
8
0
62
255
10
12.817179
20
-2.8197794
30
0
70
32
0
VERTEX
8
0
62
255
10
14.24131
20
-3.1330882
30
0
70
32
0
SEQEND
8
0
0
POLYLINE
8
0
62
255
66
1
10
0
20
0
30
0
70
8
0
VERTEX
8
0
62
255
10
14.24131
20
-3.1330882
30
0
70
32
0
VERTEX
8
0
62
255
10
15.411216
20
-3.3904675
30
0
70
32
0
SEQEND
8
0
0
POLYLINE
8
0
62
255
66
1
10
0
20
0
30
0
70
8
0
VERTEX
8
0
62
255
10
0
20
0
30
0
70
32
0
VERTEX
8
0
62
255
10
-1.424131
20
-0.31330882
30
0
70
32
0
SEQEND
8
0
0
POLYLINE
8
0
62
255
66
1
10
0
20
0
30
0
70
8
0
VERTEX
8
0
62
255
10
-1.424131
20
-0.31330882
30
0
70
32
0
VERTEX
8
0
62
255
10
-2.848262
20
-0.62661764
30
0
70
32
0
SEQEND
8
0
0
POLYLINE
8
0
62
255
66
1
10
0
20
0
30
0
70
8
0
VERTEX
8
0
62
255
10
-2.848262
20
-0.62661764
30
0
70
32
0
VERTEX
8
0
62
255
10
-4.272393
20
-0.93992647
30
0
70
32
0
SEQEND
8
0
0
POLYLINE
8
0
62
255
66
1
10
0
20
0
30
0
70
8
0
VERTEX
8
0
62
255
10
-4.272393
20
-0.93992647
30
0
70
32
0
VERTEX
8
0
62
255
10
-5.696524
20
-1.2532353
30
0
70
32
0
SEQEND
8
0
0
POLYLINE
8
0
62
255
66
1
10
0
20
0
30
0
70
8
0
VERTEX
8
0
62
255
10
-5.696524
20
-1.2532353
30
0
70
32
0
VERTEX
8
0
62
255
10
-7.120655
20
-1.5665441
30
0
70
32
0
SEQEND
8
0
0
POLYLINE
8
0
62
255
66
1
10
0
20
0
30
0
70
8
0
VERTEX
8
0
62
255
10
-7.120655
20
-1.5665441
30
0
70
32
0
VERTEX
8
0
62
255
10
-8.5447861
20
-1.8798529
30
0
70
32
0
SEQEND
8
0
0
POLYLINE
8
0
62
255
66
1
10
0
20
0
30
0
70
8
0
VERTEX
8
0
62
255
10
-8.5447861
20
-1.8798529
30
0
70
32
0
VERTEX
8
0
62
255
10
-9.9689171
20
-2.1931618
30
0
70
32
0
SEQEND
8
0
0
POLYLINE
8
0
62
255
66
1
10
0
20
0
30
0
70
8
0
VERTEX
8
0
62
255
10
-9.9689171
20
-2.1931618
30
0
70
32
0
VERTEX
8
0
62
255
10
-11.393048
20
-2.5064706
30
0
70
32
0
SEQEND
8
0
0
POLYLINE
8
0
62
255
66
1
10
0
20
0
30
0
70
8
0
VERTEX
8
0
62
255
10
-11.393048
20
-2.5064706
30
0
70
32
0
VERTEX
8
0
62
255
10
-12.817179
20
-2.8197794
30
0
70
32
0
SEQEND
8
0
0
POLYLINE
8
0
62
255
66
1
10
0
20
0
30
0
70
8
0
VERTEX
8
0
62
255
10
-12.817179
20
-2.8197794
30
0
70
32
0
VERTEX
8
0
62
255
10
-14.24131
20
-3.1330882
30
0
70
32
0
SEQEND
8
0
0
POLYLINE
8
0
62
255
66
1
10
0
20
0
30
0
70
8
0
VERTEX
8
0
62
255
10
-14.24131
20
-3.1330882
30
0
70
32
0
VERTEX
8
0
62
255
10
-15.411216
20
-3.3904675
30
0
70
32
0
SEQEND
8
0
0
POLYLINE
8
0
62
255
66
1
10
0
20
0
30
0
70
8
0
VERTEX
8
0
62
255
10
0.5186899
20
-1.0356344
30
0
70
32
0
VERTEX
8
0
62
255
10
-0.5186899
20
-1.0356344
30
0
70
32
0
SEQEND
8
0
0
POLYLINE
8
0
62
255
66
1
10
0
20
0
30
0
70
8
0
VERTEX
8
0
62
255
10
0.5186899
20
-1.0356344
30
0
70
32
0
VERTEX
8
0
62
255
10
1.9428209
20
-1.3489433
30
0
70
32
0
SEQEND
8
0
0
POLYLINE
8
0
62
255
66
1
10
0
20
0
30
0
70
8
0
VERTEX
8
0
62
255
10
1.9428209
20
-1.3489433
30
0
70
32
0
VERTEX
8
0
62
255
10
3.3669519
20
-1.6622521
30
0
70
32
0
SEQEND
8
0
0
POLYLINE
8
0
62
255
66
1
10
0
20
0
30
0
70
8
0
VERTEX
8
0
62
255
10
3.3669519
20
-1.6622521
30
0
70
32
0
VERTEX
8
0
62
255
10
4.7910829
20
-1.9755609
30
0
70
32
0
SEQEND
8
0
0
POLYLINE
8
0
62
255
66
1
10
0
20
0
30
0
70
8
0
VERTEX
8
0
62
255
10
4.7910829
20
-1.9755609
30
0
70
32
0
VERTEX
8
0
62
255
10
6.2152139
20
-2.2888697
30
0
70
32
0
SEQEND
8
0
0
POLYLINE
8
0
62
255
66
1
10
0
20
0
30
0
70
8
0
VERTEX
8
0
62
255
10
6.2152139
20
-2.2888697
30
0
70
32
0
VERTEX
8
0
62
255
10
7.639345
20
-2.6021785
30
0
70
32
0
SEQEND
8
0
0
POLYLINE
8
0
62
255
66
1
10
0
20
0
30
0
70
8
0
VERTEX
8
0
62
255
10
7.639345
20
-2.6021785
30
0
70
32
0
VERTEX
8
0
62
255
10
9.063476
20
-2.9154874
30
0
70
32
0
SEQEND
8
0
0
POLYLINE
8
0
62
255
66
1
10
0
20
0
30
0
70
8
0
VERTEX
8
0
62
255
10
9.063476
20
-2.9154874
30
0
70
32
0
VERTEX
8
0
62
255
10
10.487607
20
-3.2287962
30
0
70
32
0
SEQEND
8
0
0
POLYLINE
8
0
62
255
66
1
10
0
20
0
30
0
70
8
0
VERTEX
8
0
62
255
10
10.487607
20
-3.2287962
30
0
70
32
0
VERTEX
8
0
62
255
10
11.911738
20
-3.542105
30
0
70
32
0
SEQEND
8
0
0
POLYLINE
8
0
62
255
66
1
10
0
20
0
30
0
70
8
0
VERTEX
8
0
62
255
10
11.911738
20
-3.542105
30
0
70
32
0
VERTEX
8
0
62
255
10
13.335869
20
-3.8554138
30
0
70
32
0
SEQEND
8
0
0
POLYLINE
8
0
62
255
66
1
10
0
20
0
30
0
70
8
0
VERTEX
8
0
62
255
10
13.335869
20
-3.8554138
30
0
70
32
0
VERTEX
8
0
62
255
10
14.76
20
-4.1687227
30
0
70
32
0
SEQEND
8
0
0
POLYLINE
8
0
62
255
66
1
10
0
20
0
30
0
70
8
0
VERTEX
8
0
62
255
10
14.76
20
-4.1687227
30
0
70
32
0
VERTEX
8
0
62
255
10
15.24
20
-4.1687227
30
0
70
32
0
SEQEND
8
0
0
POLYLINE
8
0
62
255
66
1
10
0
20
0
30
0
70
8
0
VERTEX
8
0
62
255
10
-0.5186899
20
-1.0356344
30
0
70
32
0
VERTEX
8
0
62
255
10
-1.9428209
20
-1.3489433
30
0
70
32
0
SEQEND
8
0
0
POLYLINE
8
0
62
255
66
1
10
0
20
0
30
0
70
8
0
VERTEX
8
0
62
255
10
-1.9428209
20
-1.3489433
30
0
70
32
0
VERTEX
8
0
62
255
10
-3.3669519
20
-1.6622521
30
0
70
32
0
SEQEND
8
0
0
POLYLINE
8
0
62
255
66
1
10
0
20
0
30
0
70
8
0
VERTEX
8
0
62
255
10
-3.3669519
20
-1.6622521
30
0
70
32
0
VERTEX
8
0
62
255
10
-4.7910829
20
-1.9755609
30
0
70
32
0
SEQEND
8
0
0
POLYLINE
8
0
62
255
66
1
10
0
20
0
30
0
70
8
0
VERTEX
8
0
62
255
10
-4.7910829
20
-1.9755609
30
0
70
32
0
VERTEX
8
0
62
255
10
-6.2152139
20
-2.2888697
30
0
70
32
0
SEQEND
8
0
0
POLYLINE
8
0
62
255
66
1
10
0
20
0
30
0
70
8
0
VERTEX
8
0
62
255
10
-6.2152139
20
-2.2888697
30
0
70
32
0
VERTEX
8
0
62
255
10
-7.639345
20
-2.6021785
30
0
70
32
0
SEQEND
8
0
0
POLYLINE
8
0
62
255
66
1
10
0
20
0
30
0
70
8
0
VERTEX
8
0
62
255
10
-7.639345
20
-2.6021785
30
0
70
32
0
VERTEX
8
0
62
255
10
-9.063476
20
-2.9154874
30
0
70
32
0
SEQEND
8
0
0
POLYLINE
8
0
62
255
66
1
10
0
20
0
30
0
70
8
0
VERTEX
8
0
62
255
10
-9.063476
20
-2.9154874
30
0
70
32
0
VERTEX
8
0
62
255
10
-10.487607
20
-3.2287962
30
0
70
32
0
SEQEND
8
0
0
POLYLINE
8
0
62
255
66
1
10
0
20
0
30
0
70
8
0
VERTEX
8
0
62
255
10
-10.487607
20
-3.2287962
30
0
70
32
0
VERTEX
8
0
62
255
10
-11.911738
20
-3.542105
30
0
70
32
0
SEQEND
8
0
0
POLYLINE
8
0
62
255
66
1
10
0
20
0
30
0
70
8
0
VERTEX
8
0
62
255
10
-11.911738
20
-3.542105
30
0
70
32
0
VERTEX
8
0
62
255
10
-13.335869
20
-3.8554138
30
0
70
32
0
SEQEND
8
0
0
POLYLINE
8
0
62
255
66
1
10
0
20
0
30
0
70
8
0
VERTEX
8
0
62
255
10
-13.335869
20
-3.8554138
30
0
70
32
0
VERTEX
8
0
62
255
10
-14.76
20
-4.1687227
30
0
70
32
0
SEQEND
8
0
0
POLYLINE
8
0
62
255
66
1
10
0
20
0
30
0
70
8
0
VERTEX
8
0
62
255
10
-14.76
20
-4.1687227
30
0
70
32
0
VERTEX
8
0
62
255
10
-15.24
20
-4.1687227
30
0
70
32
0
SEQEND
8
0
0
POLYLINE
8
0
62
255
66
1
10
0
20
0
30
0
70
8
0
VERTEX
8
0
62
255
10
0
20
0
30
0
70
32
0
VERTEX
8
0
62
255
10
0.5186899
20
-1.0356344
30
0
70
32
0
SEQEND
8
0
0
POLYLINE
8
0
62
255
66
1
10
0
20
0
30
0
70
8
0
VERTEX
8
0
62
255
10
1.424131
20
-0.31330882
30
0
70
32
0
VERTEX
8
0
62
255
10
1.9428209
20
-1.3489433
30
0
70
32
0
SEQEND
8
0
0
POLYLINE
8
0
62
255
66
1
10
0
20
0
30
0
70
8
0
VERTEX
8
0
62
255
10
2.848262
20
-0.62661764
30
0
70
32
0
VERTEX
8
0
62
255
10
3.3669519
20
-1.6622521
30
0
70
32
0
SEQEND
8
0
0
POLYLINE
8
0
62
255
66
1
10
0
20
0
30
0
70
8
0
VERTEX
8
0
62
255
10
4.272393
20
-0.93992647
30
0
70
32
0
VERTEX
8
0
62
255
10
4.7910829
20
-1.9755609
30
0
70
32
0
SEQEND
8
0
0
POLYLINE
8
0
62
255
66
1
10
0
20
0
30
0
70
8
0
VERTEX
8
0
62
255
10
5.696524
20
-1.2532353
30
0
70
32
0
VERTEX
8
0
62
255
10
6.2152139
20
-2.2888697
30
0
70
32
0
SEQEND
8
0
0
POLYLINE
8
0
62
255
66
1
10
0
20
0
30
0
70
8
0
VERTEX
8
0
62
255
10
7.120655
20
-1.5665441
30
0
70
32
0
VERTEX
8
0
62
255
10
7.639345
20
-2.6021785
30
0
70
32
0
SEQEND
8
0
0
POLYLINE
8
0
62
255
66
1
10
0
20
0
30
0
70
8
0
VERTEX
8
0
62
255
10
8.5447861
20
-1.8798529
30
0
70
32
0
VERTEX
8
0
62
255
10
9.063476
20
-2.9154874
30
0
70
32
0
SEQEND
8
0
0
POLYLINE
8
0
62
255
66
1
10
0
20
0
30
0
70
8
0
VERTEX
8
0
62
255
10
9.9689171
20
-2.1931618
30
0
70
32
0
VERTEX
8
0
62
255
10
10.487607
20
-3.2287962
30
0
70
32
0
SEQEND
8
0
0
POLYLINE
8
0
62
255
66
1
10
0
20
0
30
0
70
8
0
VERTEX
8
0
62
255
10
11.393048
20
-2.5064706
30
0
70
32
0
VERTEX
8
0
62
255
10
11.911738
20
-3.542105
30
0
70
32
0
SEQEND
8
0
0
POLYLINE
8
0
62
255
66
1
10
0
20
0
30
0
70
8
0
VERTEX
8
0
62
255
10
12.817179
20
-2.8197794
30
0
70
32
0
VERTEX
8
0
62
255
10
13.335869
20
-3.8554138
30
0
70
32
0
SEQEND
8
0
0
POLYLINE
8
0
62
255
66
1
10
0
20
0
30
0
70
8
0
VERTEX
8
0
62
255
10
14.24131
20
-3.1330882
30
0
70
32
0
VERTEX
8
0
62
255
10
14.76
20
-4.1687227
30
0
70
32
0
SEQEND
8
0
0
POLYLINE
8
0
62
255
66
1
10
0
20
0
30
0
70
8
0
VERTEX
8
0
62
255
10
15.411216
20
-3.3904675
30
0
70
32
0
VERTEX
8
0
62
255
10
15.24
20
-4.1687227
30
0
70
32
0
SEQEND
8
0
0
POLYLINE
8
0
62
255
66
1
10
0
20
0
30
0
70
8
0
VERTEX
8
0
62
255
10
1.424131
20
-0.31330882
30
0
70
32
0
VERTEX
8
0
62
255
10
0.5186899
20
-1.0356344
30
0
70
32
0
SEQEND
8
0
0
POLYLINE
8
0
62
255
66
1
10
0
20
0
30
0
70
8
0
VERTEX
8
0
62
255
10
2.848262
20
-0.62661764
30
0
70
32
0
VERTEX
8
0
62
255
10
1.9428209
20
-1.3489433
30
0
70
32
0
SEQEND
8
0
0
POLYLINE
8
0
62
255
66
1
10
0
20
0
30
0
70
8
0
VERTEX
8
0
62
255
10
4.272393
20
-0.93992647
30
0
70
32
0
VERTEX
8
0
62
255
10
3.3669519
20
-1.6622521
30
0
70
32
0
SEQEND
8
0
0
POLYLINE
8
0
62
255
66
1
10
0
20
0
30
0
70
8
0
VERTEX
8
0
62
255
10
5.696524
20
-1.2532353
30
0
70
32
0
VERTEX
8
0
62
255
10
4.7910829
20
-1.9755609
30
0
70
32
0
SEQEND
8
0
0
POLYLINE
8
0
62
255
66
1
10
0
20
0
30
0
70
8
0
VERTEX
8
0
62
255
10
7.120655
20
-1.5665441
30
0
70
32
0
VERTEX
8
0
62
255
10
6.2152139
20
-2.2888697
30
0
70
32
0
SEQEND
8
0
0
POLYLINE
8
0
62
255
66
1
10
0
20
0
30
0
70
8
0
VERTEX
8
0
62
255
10
8.5447861
20
-1.8798529
30
0
70
32
0
VERTEX
8
0
62
255
10
7.639345
20
-2.6021785
30
0
70
32
0
SEQEND
8
0
0
POLYLINE
8
0
62
255
66
1
10
0
20
0
30
0
70
8
0
VERTEX
8
0
62
255
10
9.9689171
20
-2.1931618
30
0
70
32
0
VERTEX
8
0
62
255
10
9.063476
20
-2.9154874
30
0
70
32
0
SEQEND
8
0
0
POLYLINE
8
0
62
255
66
1
10
0
20
0
30
0
70
8
0
VERTEX
8
0
62
255
10
11.393048
20
-2.5064706
30
0
70
32
0
VERTEX
8
0
62
255
10
10.487607
20
-3.2287962
30
0
70
32
0
SEQEND
8
0
0
POLYLINE
8
0
62
255
66
1
10
0
20
0
30
0
70
8
0
VERTEX
8
0
62
255
10
12.817179
20
-2.8197794
30
0
70
32
0
VERTEX
8
0
62
255
10
11.911738
20
-3.542105
30
0
70
32
0
SEQEND
8
0
0
POLYLINE
8
0
62
255
66
1
10
0
20
0
30
0
70
8
0
VERTEX
8
0
62
255
10
14.24131
20
-3.1330882
30
0
70
32
0
VERTEX
8
0
62
255
10
13.335869
20
-3.8554138
30
0
70
32
0
SEQEND
8
0
0
POLYLINE
8
0
62
255
66
1
10
0
20
0
30
0
70
8
0
VERTEX
8
0
62
255
10
15.411216
20
-3.3904675
30
0
70
32
0
VERTEX
8
0
62
255
10
14.76
20
-4.1687227
30
0
70
32
0
SEQEND
8
0
0
POLYLINE
8
0
62
255
66
1
10
0
20
0
30
0
70
8
0
VERTEX
8
0
62
255
10
0
20
0
30
0
70
32
0
VERTEX
8
0
62
255
10
-0.5186899
20
-1.0356344
30
0
70
32
0
SEQEND
8
0
0
POLYLINE
8
0
62
255
66
1
10
0
20
0
30
0
70
8
0
VERTEX
8
0
62
255
10
-1.424131
20
-0.31330882
30
0
70
32
0
VERTEX
8
0
62
255
10
-1.9428209
20
-1.3489433
30
0
70
32
0
SEQEND
8
0
0
POLYLINE
8
0
62
255
66
1
10
0
20
0
30
0
70
8
0
VERTEX
8
0
62
255
10
-2.848262
20
-0.62661764
30
0
70
32
0
VERTEX
8
0
62
255
10
-3.3669519
20
-1.6622521
30
0
70
32
0
SEQEND
8
0
0
POLYLINE
8
0
62
255
66
1
10
0
20
0
30
0
70
8
0
VERTEX
8
0
62
255
10
-4.272393
20
-0.93992647
30
0
70
32
0
VERTEX
8
0
62
255
10
-4.7910829
20
-1.9755609
30
0
70
32
0
SEQEND
8
0
0
POLYLINE
8
0
62
255
66
1
10
0
20
0
30
0
70
8
0
VERTEX
8
0
62
255
10
-5.696524
20
-1.2532353
30
0
70
32
0
VERTEX
8
0
62
255
10
-6.2152139
20
-2.2888697
30
0
70
32
0
SEQEND
8
0
0
POLYLINE
8
0
62
255
66
1
10
0
20
0
30
0
70
8
0
VERTEX
8
0
62
255
10
-7.120655
20
-1.5665441
30
0
70
32
0
VERTEX
8
0
62
255
10
-7.639345
20
-2.6021785
30
0
70
32
0
SEQEND
8
0
0
POLYLINE
8
0
62
255
66
1
10
0
20
0
30
0
70
8
0
VERTEX
8
0
62
255
10
-8.5447861
20
-1.8798529
30
0
70
32
0
VERTEX
8
0
62
255
10
-9.063476
20
-2.9154874
30
0
70
32
0
SEQEND
8
0
0
POLYLINE
8
0
62
255
66
1
10
0
20
0
30
0
70
8
0
VERTEX
8
0
62
255
10
-9.9689171
20
-2.1931618
30
0
70
32
0
VERTEX
8
0
62
255
10
-10.487607
20
-3.2287962
30
0
70
32
0
SEQEND
8
0
0
POLYLINE
8
0
62
255
66
1
10
0
20
0
30
0
70
8
0
VERTEX
8
0
62
255
10
-11.393048
20
-2.5064706
30
0
70
32
0
VERTEX
8
0
62
255
10
-11.911738
20
-3.542105
30
0
70
32
0
SEQEND
8
0
0
POLYLINE
8
0
62
255
66
1
10
0
20
0
30
0
70
8
0
VERTEX
8
0
62
255
10
-12.817179
20
-2.8197794
30
0
70
32
0
VERTEX
8
0
62
255
10
-13.335869
20
-3.8554138
30
0
70
32
0
SEQEND
8
0
0
POLYLINE
8
0
62
255
66
1
10
0
20
0
30
0
70
8
0
VERTEX
8
0
62
255
10
-14.24131
20
-3.1330882
30
0
70
32
0
VERTEX
8
0
62
255
10
-14.76
20
-4.1687227
30
0
70
32
0
SEQEND
8
0
0
POLYLINE
8
0
62
255
66
1
10
0
20
0
30
0
70
8
0
VERTEX
8
0
62
255
10
-15.411216
20
-3.3904675
30
0
70
32
0
VERTEX
8
0
62
255
10
-15.24
20
-4.1687227
30
0
70
32
0
SEQEND
8
0
0
POLYLINE
8
0
62
255
66
1
10
0
20
0
30
0
70
8
0
VERTEX
8
0
62
255
10
-1.424131
20
-0.31330882
30
0
70
32
0
VERTEX
8
0
62
255
10
-0.5186899
20
-1.0356344
30
0
70
32
0
SEQEND
8
0
0
POLYLINE
8
0
62
255
66
1
10
0
20
0
30
0
70
8
0
VERTEX
8
0
62
255
10
-2.848262
20
-0.62661764
30
0
70
32
0
VERTEX
8
0
62
255
10
-1.9428209
20
-1.3489433
30
0
70
32
0
SEQEND
8
0
0
POLYLINE
8
0
62
255
66
1
10
0
20
0
30
0
70
8
0
VERTEX
8
0
62
255
10
-4.272393
20
-0.93992647
30
0
70
32
0
VERTEX
8
0
62
255
10
-3.3669519
20
-1.6622521
30
0
70
32
0
SEQEND
8
0
0
POLYLINE
8
0
62
255
66
1
10
0
20
0
30
0
70
8
0
VERTEX
8
0
62
255
10
-5.696524
20
-1.2532353
30
0
70
32
0
VERTEX
8
0
62
255
10
-4.7910829
20
-1.9755609
30
0
70
32
0
SEQEND
8
0
0
POLYLINE
8
0
62
255
66
1
10
0
20
0
30
0
70
8
0
VERTEX
8
0
62
255
10
-7.120655
20
-1.5665441
30
0
70
32
0
VERTEX
8
0
62
255
10
-6.2152139
20
-2.2888697
30
0
70
32
0
SEQEND
8
0
0
POLYLINE
8
0
62
255
66
1
10
0
20
0
30
0
70
8
0
VERTEX
8
0
62
255
10
-8.5447861
20
-1.8798529
30
0
70
32
0
VERTEX
8
0
62
255
10
-7.639345
20
-2.6021785
30
0
70
32
0
SEQEND
8
0
0
POLYLINE
8
0
62
255
66
1
10
0
20
0
30
0
70
8
0
VERTEX
8
0
62
255
10
-9.9689171
20
-2.1931618
30
0
70
32
0
VERTEX
8
0
62
255
10
-9.063476
20
-2.9154874
30
0
70
32
0
SEQEND
8
0
0
POLYLINE
8
0
62
255
66
1
10
0
20
0
30
0
70
8
0
VERTEX
8
0
62
255
10
-11.393048
20
-2.5064706
30
0
70
32
0
VERTEX
8
0
62
255
10
-10.487607
20
-3.2287962
30
0
70
32
0
SEQEND
8
0
0
POLYLINE
8
0
62
255
66
1
10
0
20
0
30
0
70
8
0
VERTEX
8
0
62
255
10
-12.817179
20
-2.8197794
30
0
70
32
0
VERTEX
8
0
62
255
10
-11.911738
20
-3.542105
30
0
70
32
0
SEQEND
8
0
0
POLYLINE
8
0
62
255
66
1
10
0
20
0
30
0
70
8
0
VERTEX
8
0
62
255
10
-14.24131
20
-3.1330882
30
0
70
32
0
VERTEX
8
0
62
255
10
-13.335869
20
-3.8554138
30
0
70
32
0
SEQEND
8
0
0
POLYLINE
8
0
62
255
66
1
10
0
20
0
30
0
70
8
0
VERTEX
8
0
62
255
10
-15.411216
20
-3.3904675
30
0
70
32
0
VERTEX
8
0
62
255
10
-14.76
20
-4.1687227
30
0
70
32
0
SEQEND
8
0
0
POLYLINE
8
0
62
255
66
1
10
0
20
0
30
0
70
8
0
VERTEX
8
0
62
255
10
15.24
20
-7.6687227
30
0
70
32
0
VERTEX
8
0
62
255
10
15.24
20
-4.1687227
30
0
70
32
0
SEQEND
8
0
0
POLYLINE
8
0
62
255
66
1
10
0
20
0
30
0
70
8
0
VERTEX
8
0
62
255
10
-15.24
20
-7.6687227
30
0
70
32
0
VERTEX
8
0
62
255
10
-15.24
20
-4.1687227
30
0
70
32
0
SEQEND
8
0
0
ENDSEC
0
EOF
